# xmcd
#
# Track frame offsets:
#	150
#	14093
#	33136
#	57230
#	80182
#	95407
#	111475
#	129327
#	144477
#	159403
#	176508
#	191886
#	205648
#	224291
#	240840
#	267567
#
# Disc length: 3573 seconds
#
# Revision: 1
# Processed by: cddbd v1.5.2PL0 Copyright (c) Steve Scherf et al.
# Submitted via: audiograbber 1.83.01
#
DISCID=e30df310
DTITLE=COUNTRY - BEST OF COUNTRY VOLUME 3
DYEAR=1900
DGENRE=Country
TTITLE0=ALAN JACKSON - TALKIN' SONG REPAIR BLUES
TTITLE1=BIG AND RICH - BIG TIME
TTITLE2=BIG AND RICH - REAL WORLD
TTITLE3=BIG and RICH - ROLLIN'
TTITLE4=BLAKE SHELTON - GOODBYE TIME
TTITLE5=BRAD PAISLEY - MUD ON THE TIRES
TTITLE6=BROOKS and DUNN - IT'S GETTING BETTER ALL THE TIME
TTITLE7=BUDDY JEWELL - IF SHE WERE ANY OTHER WOMAN
TTITLE8=CRAIG MORGAN - THAT'S WHAT I LOVE ABOUT SUNDAY
TTITLE9=DIERKS BENTLEY - LOT OF LEAVIN' LEFT TO DO
TTITLE10=JULIE ROBERTS - WAKE UP OLDER
TTITLE11=KEITH ANDERSON - PICKIN' WILDFLOWERS
TTITLE12=KEITH URBAN - MAKING MEMORIES OF US
TTITLE13=LEANN RIMES - PROBABLY WOULDN'T BE THIS WAY
TTITLE14=TRACE ADKINS - SONGS ABOUT ME
TTITLE15=DATA TRACK - Data Track
EXTD=
EXTT0=
EXTT1=
EXTT2=
EXTT3=
EXTT4=
EXTT5=
EXTT6=
EXTT7=
EXTT8=
EXTT9=
EXTT10=
EXTT11=
EXTT12=
EXTT13=
EXTT14=
EXTT15=
PLAYORDER=
